<?xml version="1.0" encoding="UTF-8"?><svg id="a" xmlns="http://www.w3.org/2000/svg" viewBox="0 0 323.44 361.56"><defs><style>.b{fill:#ffd72e;stroke:#fff;stroke-miterlimit:10;}</style></defs><path class="b" d="M.5,275.1c.34-44.96,6.28-85.81,16.29-126.04,7.6-30.54,15.15-61.18,24.81-91.1,5.14-15.91,13.94-30.85,22.53-45.37C70.05,2.6,82.88-1.37,92.11,1.32c9.83,2.86,17.7,13.68,18.83,25.91,1.59,17.19,19.9,37.66,34.01,34.68,11.12-2.35,22.11-8.96,31.25-16.11,11.46-8.97,22.24-18.4,37.29-19.83,10.96-1.04,31.95,9.76,31.92,26.37-.02,15.32-5.16,30.58-7,45.98-1.19,10-2.69,20.81-.17,30.22,3.76,14.07,25.42,17.4,38.53,15.19,8.94-1.51,17.48-6.08,26.4-6.76,9.21-.71,14.77,6.66,17.88,14.69,3.59,9.27,1.96,18.89-4.23,26.08-14.64,17.01-29.66,33.8-45.65,49.53-45.11,44.36-95.43,82.01-150.3,113.48-19.57,11.23-40.28,20.02-63.36,20.3-29.16,.36-45.97-13.28-52.27-41.91-1.71-7.76-2.92-15.67-3.72-23.58-.8-7.9-.82-15.89-1.02-20.46Z"/></svg>